<svg width="40" height="40" viewBox="0 0 40 40" fill="none" xmlns="http://www.w3.org/2000/svg">
<path fill-rule="evenodd" clip-rule="evenodd" d="M17.935 22.687V16.916L23.338 19.811L17.935 22.687ZM29.8 15.917C29.8 15.917 29.605 14.501 29.005 13.877C28.245 13.06 27.392 13.056 27.001 13.007C24.203 12.8 20.004 12.8 20.004 12.8H19.996C19.996 12.8 15.798 12.8 12.999 13.008C12.608 13.056 11.756 13.06 10.995 13.878C10.395 14.5 10.2 15.916 10.2 15.916C10.2 15.916 10 17.578 10 19.24V20.8C10 22.462 10.2 24.124 10.2 24.124C10.2 24.124 10.395 25.539 10.995 26.162C11.755 26.98 12.755 26.954 13.2 27.04C14.8 27.198 20 27.246 20 27.246C20 27.246 24.203 27.24 27.001 27.032C27.392 26.984 28.245 26.98 29.005 26.162C29.605 25.539 29.8 24.124 29.8 24.124C29.8 24.124 30 22.462 30 20.8V19.24C30 17.578 29.8 15.916 29.8 15.916V15.917Z" fill="white"/>
</svg>
