<svg width="258" height="53" viewBox="0 0 258 53" fill="none" xmlns="http://www.w3.org/2000/svg">
<path d="M229.376 18.1401V34.8392H235.186V18.1401H229.376Z" fill="#A5A5A5"/>
<path d="M211.946 27.8048C213.556 27.8048 214.861 26.5151 214.861 24.9241C214.861 23.3332 213.556 22.0435 211.946 22.0435C210.335 22.0435 209.03 23.3332 209.03 24.9241C209.03 26.5151 210.335 27.8048 211.946 27.8048Z" fill="#A5A5A5"/>
<path d="M211.946 30.9359C213.556 30.9359 214.861 29.6462 214.861 28.0552C214.861 26.4643 213.556 25.1746 211.946 25.1746C210.335 25.1746 209.03 26.4643 209.03 28.0552C209.03 29.6462 210.335 30.9359 211.946 30.9359Z" fill="#A5A5A5"/>
<path d="M209.051 24.9241H214.862V28.0551H209.051V24.9241Z" fill="#A5A5A5"/>
<path d="M252.616 30.9359C254.226 30.9359 255.531 29.6462 255.531 28.0552C255.531 26.4643 254.226 25.1746 252.616 25.1746C251.005 25.1746 249.7 26.4643 249.7 28.0552C249.7 29.6462 251.005 30.9359 252.616 30.9359Z" fill="#A5A5A5"/>
<path d="M252.616 27.8048C254.226 27.8048 255.531 26.5151 255.531 24.9241C255.531 23.3332 254.226 22.0435 252.616 22.0435C251.005 22.0435 249.7 23.3332 249.7 24.9241C249.7 26.5151 251.005 27.8048 252.616 27.8048Z" fill="#A5A5A5"/>
<path d="M249.721 24.9241H255.531V28.0551H249.721V24.9241Z" fill="#A5A5A5"/>
<path d="M221.981 37.1974C223.591 37.1974 224.897 35.9077 224.897 34.3167C224.897 32.7258 223.591 31.436 221.981 31.436C220.371 31.436 219.065 32.7258 219.065 34.3167C219.065 35.9077 220.371 37.1974 221.981 37.1974Z" fill="#A5A5A5"/>
<path d="M221.981 40.3285C223.591 40.3285 224.897 39.0388 224.897 37.4478C224.897 35.8569 223.591 34.5671 221.981 34.5671C220.371 34.5671 219.065 35.8569 219.065 37.4478C219.065 39.0388 220.371 40.3285 221.981 40.3285Z" fill="#A5A5A5"/>
<path d="M219.065 34.3167H224.876V37.4477H219.065V34.3167Z" fill="#A5A5A5"/>
<path d="M221.981 18.4117C223.591 18.4117 224.897 17.122 224.897 15.5311C224.897 13.9401 223.591 12.6504 221.981 12.6504C220.371 12.6504 219.065 13.9401 219.065 15.5311C219.065 17.122 220.371 18.4117 221.981 18.4117Z" fill="#A5A5A5"/>
<path d="M221.981 28.5978C223.591 28.5978 224.897 27.3081 224.897 25.7171C224.897 24.1261 223.591 22.8364 221.981 22.8364C220.371 22.8364 219.065 24.1261 219.065 25.7171C219.065 27.3081 220.371 28.5978 221.981 28.5978Z" fill="#A5A5A5"/>
<path d="M219.065 15.531H224.876V25.7802H219.065V15.531Z" fill="#A5A5A5"/>
<path d="M242.58 21.5428C244.191 21.5428 245.496 20.2531 245.496 18.6622C245.496 17.0712 244.191 15.7815 242.58 15.7815C240.97 15.7815 239.665 17.0712 239.665 18.6622C239.665 20.2531 240.97 21.5428 242.58 21.5428Z" fill="#A5A5A5"/>
<path d="M242.58 18.4117C244.191 18.4117 245.496 17.122 245.496 15.5311C245.496 13.9401 244.191 12.6504 242.58 12.6504C240.97 12.6504 239.665 13.9401 239.665 15.5311C239.665 17.122 240.97 18.4117 242.58 18.4117Z" fill="#A5A5A5"/>
<path d="M239.686 15.531H245.496V18.662H239.686V15.531Z" fill="#A5A5A5"/>
<path d="M232.292 12.4208C233.902 12.4208 235.208 11.1311 235.208 9.5401C235.208 7.94915 233.902 6.65942 232.292 6.65942C230.682 6.65942 229.376 7.94915 229.376 9.5401C229.376 11.1311 230.682 12.4208 232.292 12.4208Z" fill="#A5A5A5"/>
<path d="M232.292 9.28967C233.902 9.28967 235.208 7.99995 235.208 6.409C235.208 4.81804 233.902 3.52832 232.292 3.52832C230.682 3.52832 229.376 4.81804 229.376 6.409C229.376 7.99995 230.682 9.28967 232.292 9.28967Z" fill="#A5A5A5"/>
<path d="M229.376 6.40894H235.186V9.53997H229.376V6.40894Z" fill="#A5A5A5"/>
<path d="M232.292 49.4718C233.902 49.4718 235.208 48.1821 235.208 46.5911C235.208 45.0002 233.902 43.7104 232.292 43.7104C230.682 43.7104 229.376 45.0002 229.376 46.5911C229.376 48.1821 230.682 49.4718 232.292 49.4718Z" fill="#A5A5A5"/>
<path d="M232.292 46.3407C233.902 46.3407 235.208 45.051 235.208 43.46C235.208 41.8691 233.902 40.5793 232.292 40.5793C230.682 40.5793 229.376 41.8691 229.376 43.46C229.376 45.051 230.682 46.3407 232.292 46.3407Z" fill="#A5A5A5"/>
<path d="M229.376 43.46H235.186V46.591H229.376V43.46Z" fill="#A5A5A5"/>
<path d="M242.58 40.3285C244.191 40.3285 245.496 39.0388 245.496 37.4478C245.496 35.8569 244.191 34.5671 242.58 34.5671C240.97 34.5671 239.665 35.8569 239.665 37.4478C239.665 39.0388 240.97 40.3285 242.58 40.3285Z" fill="#A5A5A5"/>
<path d="M242.58 30.1637C244.191 30.1637 245.496 28.874 245.496 27.283C245.496 25.6921 244.191 24.4023 242.58 24.4023C240.97 24.4023 239.665 25.6921 239.665 27.283C239.665 28.874 240.97 30.1637 242.58 30.1637Z" fill="#A5A5A5"/>
<path d="M239.686 27.283H245.496V37.4701H239.686V27.283Z" fill="#A5A5A5"/>
<path d="M232.292 21.0209C233.902 21.0209 235.208 19.7311 235.208 18.1402C235.208 16.5492 233.902 15.2595 232.292 15.2595C230.682 15.2595 229.376 16.5492 229.376 18.1402C229.376 19.7311 230.682 21.0209 232.292 21.0209Z" fill="#A5A5A5"/>
<path d="M232.292 37.7199C233.902 37.7199 235.208 36.4301 235.208 34.8392C235.208 33.2482 233.902 31.9585 232.292 31.9585C230.682 31.9585 229.376 33.2482 229.376 34.8392C229.376 36.4301 230.682 37.7199 232.292 37.7199Z" fill="#A5A5A5"/>
<path d="M99.9707 34.0036H97.499V14.8837H104.091C105.717 14.8837 107.133 15.4263 108.337 16.5121C109.541 17.5761 110.133 18.9334 110.133 20.582C110.133 22.2103 109.542 23.5671 108.337 24.6524C107.182 25.7063 105.663 26.2823 104.091 26.2595H99.9707V34.0036ZM99.9707 23.9225H104.132C105.189 23.9225 106.034 23.5677 106.668 22.8787C107.281 22.169 107.597 21.4174 107.597 20.5825C107.597 19.7476 107.281 18.9753 106.647 18.2863C106.013 17.5766 105.167 17.243 104.132 17.243H99.9707V23.9225ZM112.203 22.5026C113.47 21.167 115.098 20.4987 117.083 20.4987C119.07 20.4987 120.697 21.1665 121.985 22.4819C123.253 23.8175 123.887 25.4666 123.887 27.4705C123.887 29.4537 123.253 31.1234 121.985 32.4388C120.718 33.7744 119.07 34.4226 117.083 34.4226C115.098 34.4226 113.492 33.7755 112.203 32.4388C110.936 31.1244 110.28 29.4537 110.28 27.4705C110.28 25.4666 110.914 23.818 112.182 22.5026H112.203ZM114.042 30.915C115.627 32.5746 118.274 32.6503 119.955 31.0836C120.013 31.0301 120.071 30.9725 120.126 30.915C120.971 30.0382 121.393 28.8894 121.393 27.4705C121.393 26.0511 120.971 24.9033 120.126 24.027C119.281 23.1921 118.267 22.7328 117.083 22.7328C115.922 22.7328 114.908 23.1709 114.042 24.027C113.197 24.9033 112.774 26.0516 112.774 27.4705C112.773 28.8894 113.196 30.0382 114.042 30.915ZM131.387 34.421C129.696 34.421 128.217 33.7532 126.949 32.4373C125.7 31.0825 125.033 29.3012 125.09 27.4695C125.09 25.4868 125.724 23.8377 126.949 22.5016C128.721 20.4482 131.697 19.8839 134.112 21.1448C134.914 21.5617 135.506 22.1049 135.908 22.7313H136.014L135.908 20.9151V14.8832H138.38V34.0031H136.014V32.187H135.908C135.486 32.8129 134.916 33.3555 134.112 33.7946C133.31 34.2121 132.401 34.421 131.387 34.421ZM131.809 32.1885C132.971 32.1885 133.964 31.7715 134.766 30.916C135.611 30.0599 136.013 28.9116 136.013 27.4715C136.013 26.0102 135.591 24.8836 134.787 24.028C133.942 23.1719 132.97 22.7338 131.788 22.7338C130.648 22.7338 129.653 23.1512 128.83 24.028C127.985 24.8836 127.562 26.0314 127.562 27.4508C127.562 28.8914 127.985 30.0397 128.83 30.8948C129.653 31.7498 130.647 32.1885 131.788 32.1885H131.809ZM147.021 34.421C145.034 34.421 143.408 33.7744 142.118 32.4373C140.851 31.1229 140.216 29.4532 140.216 27.4695C140.216 25.4656 140.85 23.817 142.118 22.4809C143.385 21.166 145.034 20.4977 147.021 20.4977C149.567 20.4028 151.898 21.91 152.83 24.2546L150.548 25.1935C150.011 23.6479 148.501 22.6424 146.851 22.7308C145.753 22.7308 144.78 23.1901 143.935 24.0664C143.09 24.9638 142.689 26.0915 142.689 27.4685C142.689 28.8253 143.112 29.9736 143.956 30.8499C144.801 31.7468 145.753 32.1855 146.851 32.1855C148.71 32.1855 149.978 31.3506 150.696 29.7222L152.914 30.6611C151.942 33.0133 149.588 34.5144 147.021 34.421ZM158.81 34.421C157.394 34.421 156.211 34.0248 155.282 33.2318C154.342 32.4444 153.821 31.2749 153.867 30.0589C153.867 28.639 154.415 27.5124 155.536 26.7199C156.743 25.8744 158.197 25.4433 159.676 25.4888C161.135 25.4888 162.318 25.7598 163.268 26.2813V25.9057C163.268 24.9457 162.93 24.1941 162.254 23.6095C161.578 23.025 160.702 22.7116 159.803 22.7333C159.085 22.7333 158.43 22.8998 157.838 23.2547C157.247 23.5889 156.846 24.0482 156.634 24.6327L154.374 23.6726C154.669 22.8998 155.282 22.169 156.191 21.5017C157.078 20.8334 158.262 20.4997 159.74 20.4997C161.43 20.4997 162.846 20.9797 163.966 21.961C165.084 22.9423 165.656 24.3197 165.656 26.094V34.0046H163.269V32.1885H163.163C162.22 33.6583 160.549 34.5124 158.789 34.4226H158.81V34.421H158.81ZM159.211 32.1885C160.225 32.1885 161.156 31.8129 162 31.0619C162.845 30.2896 163.267 29.3916 163.267 28.3689C162.549 27.8056 161.491 27.5346 160.098 27.5346C158.894 27.5346 157.985 27.7849 157.351 28.2857C156.76 28.8071 156.444 29.4123 156.444 30.1018C156.444 30.7484 156.739 31.2496 157.289 31.6262C157.837 32.0017 158.492 32.189 159.19 32.189H159.211V32.1885ZM172.901 34.421C170.37 34.5139 168.058 33.0148 167.133 30.6853L169.353 29.7878C170.049 31.4167 171.254 32.2516 172.944 32.2516C173.704 32.2516 174.338 32.0633 174.846 31.7291C175.309 31.4409 175.589 30.9357 175.584 30.3935C175.584 29.5592 174.973 28.9736 173.767 28.6607L171.106 28.0348C170.222 27.8006 169.4 27.3801 168.697 26.8037C167.949 26.2293 167.525 25.3373 167.556 24.4035C167.556 23.2345 168.084 22.3158 169.12 21.5855C170.2 20.852 171.486 20.4719 172.795 20.5002C173.978 20.5002 175.014 20.7718 175.943 21.2932C176.852 21.8146 177.508 22.545 177.909 23.548L175.754 24.4242C175.268 23.2764 174.253 22.6914 172.732 22.6914C171.993 22.6914 171.359 22.8378 170.852 23.1507C170.366 23.443 170.113 23.8599 170.113 24.3611C170.113 25.1127 170.683 25.6135 171.866 25.885L174.487 26.5109C175.711 26.782 176.641 27.2827 177.233 27.9722C177.824 28.6617 178.121 29.434 178.121 30.3315C178.121 31.4995 177.635 32.4817 176.662 33.2535C175.69 34.046 174.443 34.421 172.901 34.421ZM185.577 34.2121C184.183 34.2121 183.126 33.8577 182.387 33.1273C181.609 32.2803 181.213 31.1593 181.289 30.017V23.1709H178.965V20.9166H181.289V16.93H183.782V20.9166H187.014V23.1709H183.782V29.8504C183.782 31.2703 184.373 31.979 185.557 31.979C186.022 31.979 186.402 31.8962 186.697 31.771L187.542 33.8582C187.014 34.1086 186.36 34.2131 185.556 34.2131H185.577V34.2121ZM194.26 34.421C191.73 34.5139 189.416 33.0148 188.493 30.6853L190.711 29.7878C191.408 31.4167 192.613 32.2516 194.303 32.2516C195.062 32.2516 195.697 32.0633 196.204 31.7291C196.668 31.4409 196.948 30.9357 196.943 30.3935C196.943 29.5592 196.331 28.9736 195.126 28.6607L192.464 28.0348C191.581 27.8006 190.759 27.3801 190.055 26.8037C189.309 26.2293 188.885 25.3373 188.915 24.4035C188.915 23.2345 189.443 22.3158 190.479 21.5855C191.559 20.852 192.845 20.4719 194.154 20.5002C195.337 20.5002 196.373 20.7718 197.303 21.2932C198.21 21.8146 198.866 22.545 199.267 23.548L197.113 24.4242C196.627 23.2764 195.612 22.6914 194.092 22.6914C193.352 22.6914 192.718 22.8378 192.211 23.1507C191.704 23.443 191.471 23.8599 191.471 24.3611C191.471 25.1127 192.042 25.6135 193.226 25.885L195.845 26.5109C197.07 26.782 198 27.2827 198.592 27.9722C199.183 28.6612 199.479 29.434 199.479 30.3315C199.479 31.4995 198.993 32.4817 198.02 33.2535C197.049 34.046 195.803 34.421 194.26 34.421ZM3.10266 23.4834C3.10266 17.4302 8.21566 12.5245 14.3423 12.5245C17.1864 12.4806 19.9289 13.5719 21.9484 15.5515L19.793 17.6392C16.6019 14.6642 11.5743 14.809 8.56409 17.9618C7.15045 19.4427 6.37441 21.4073 6.39893 23.442C6.39893 27.846 9.88474 31.395 14.3428 31.395C16.4395 31.4818 18.4749 30.6853 19.9416 29.2028C20.7866 28.3679 21.3783 27.1146 21.5898 25.4459H14.3423V22.4612H24.5468C24.6526 23.0033 24.7159 23.6292 24.7159 24.3394C24.8084 26.9203 23.8668 29.4325 22.0961 31.3324C20.0729 33.4019 17.2518 34.518 14.3423 34.4003C8.20391 34.413 3.19513 29.5481 3.10266 23.4834ZM32.8284 20.4568C36.7132 20.3871 39.9195 23.443 39.99 27.2812C39.991 27.3519 39.9916 27.421 39.9905 27.4912C40.0493 31.3294 36.9482 34.4887 33.0629 34.5472C32.9847 34.5482 32.906 34.5482 32.8284 34.5472C28.9435 34.6053 25.7464 31.5404 25.6871 27.7017C25.6861 27.631 25.6861 27.5613 25.6871 27.4907C25.6284 23.6641 28.7208 20.5149 32.5939 20.4563C32.6725 20.4553 32.7502 20.4558 32.8284 20.4568ZM32.8284 31.7493C34.9833 31.7493 36.8634 29.9953 36.8634 27.4695C36.8634 24.9229 34.9828 23.1906 32.8493 23.1906C30.652 23.1906 28.8143 24.9229 28.8143 27.4695C28.8138 29.9963 30.6739 31.7493 32.8284 31.7493ZM48.4621 20.4568C52.347 20.3988 55.5441 23.4637 55.6029 27.3024C55.6039 27.3655 55.6039 27.4286 55.6034 27.4912C55.6621 31.3294 52.56 34.4887 48.6752 34.5472C48.6036 34.5482 48.5331 34.5482 48.4621 34.5472C44.5773 34.6169 41.3704 31.5611 41.2999 27.7223C41.2984 27.6461 41.2984 27.5679 41.2999 27.4907C41.2407 23.6641 44.3326 20.5149 48.2062 20.4553C48.2915 20.4548 48.3768 20.4548 48.4621 20.4568ZM48.4621 31.7493C50.6171 31.7493 52.4762 29.9953 52.4762 27.4695C52.4762 24.9229 50.6375 23.1906 48.4621 23.1906C46.2857 23.1906 44.4271 24.9229 44.4271 27.4695C44.4271 29.9953 46.3077 31.7493 48.4407 31.7493H48.4621ZM67.6252 20.6865H70.6251V33.3363C70.6251 38.5545 67.5194 40.6846 63.8435 40.6846C61.0658 40.7008 58.5573 39.0492 57.5054 36.5097L60.252 35.3831C60.7164 36.5304 61.9001 37.8883 63.8221 37.8883C66.1461 37.8883 67.6246 36.4265 67.6246 33.7553V32.7336H67.5194C66.5671 33.7906 65.1908 34.3791 63.7587 34.3408C59.9245 34.2166 56.8888 31.0962 56.9138 27.3064C56.9138 23.3405 60.1886 20.2292 63.7587 20.2292C65.4493 20.2292 66.822 20.9807 67.5194 21.8156H67.6246L67.6252 20.6865ZM64.0331 31.5611C66.1456 31.5611 67.8356 29.7863 67.8356 27.3029C67.8356 24.8185 66.1451 23.023 64.0331 23.023C61.8776 23.023 60.0614 24.8185 60.0614 27.3029C60.0619 29.7671 61.8781 31.5611 64.0331 31.5611ZM72.7591 34.0667V13.3599H75.8643V34.0667H72.7591ZM84.4636 31.77C86.0693 31.77 87.1678 30.9771 87.9913 29.808L90.4211 31.4152C89.0908 33.3792 86.8546 34.5548 84.4636 34.5462C80.613 34.5942 77.4527 31.5484 77.4056 27.7435C77.4041 27.6593 77.4051 27.575 77.4072 27.4902C77.4072 23.3158 80.4705 20.4558 84.1673 20.4558C87.8437 20.4558 89.6604 23.3365 90.252 24.9229L90.5688 25.7164L81.0197 29.6192C81.759 31.0179 82.8793 31.7478 84.4846 31.7478L84.4636 31.77ZM84.2521 23.1497C82.6254 23.1497 80.4071 24.5484 80.4914 27.2615L86.8719 24.6524C86.5337 23.7756 85.4777 23.1699 84.2312 23.1699L84.2521 23.1497Z" fill="#A5A5A5"/>
</svg>
