<svg width="50" height="36" viewBox="0 0 50 36" fill="none" xmlns="http://www.w3.org/2000/svg">
<path d="M4.25958 0.830994C3.80546 0.830883 3.35577 0.920689 2.9362 1.09528C2.51662 1.26986 2.13539 1.52581 1.81428 1.8485C1.49317 2.17119 1.23847 2.55429 1.06474 2.97592C0.891008 3.39756 0.801646 3.84946 0.801758 4.30581C0.80243 5.22686 1.16706 6.10995 1.81548 6.76092C2.4639 7.41189 3.34302 7.77745 4.25958 7.77722H45.7442C46.6602 7.77655 47.5385 7.41059 48.1862 6.75972C48.8339 6.10885 49.198 5.22627 49.1987 4.30581C49.1989 3.38475 48.8351 2.5013 48.1874 1.8497C47.5396 1.19809 46.6608 0.83167 45.7442 0.830994H4.25958ZM4.25958 14.7268C3.80546 14.7267 3.35577 14.8165 2.9362 14.9911C2.51662 15.1657 2.13539 15.4216 1.81428 15.7443C1.49317 16.067 1.23848 16.4501 1.06474 16.8718C0.891011 17.2934 0.801647 17.7453 0.801758 18.2016C0.802432 19.1227 1.16706 20.0058 1.81548 20.6567C2.4639 21.3077 3.34303 21.6733 4.25958 21.673H45.7442C46.6602 21.6724 47.5385 21.3064 48.1862 20.6555C48.8339 20.0047 49.198 19.1221 49.1987 18.2016C49.1989 17.2806 48.8351 16.3971 48.1874 15.7455C47.5396 15.0939 46.6608 14.7275 45.7442 14.7268H4.25958ZM4.25958 28.6227C3.34302 28.6225 2.46389 28.988 1.81547 29.639C1.16706 30.29 0.802427 31.173 0.801758 32.0941C0.80165 32.5505 0.891015 33.0023 1.06475 33.424C1.23848 33.8456 1.49318 34.2287 1.81429 34.5514C2.1354 34.8741 2.51663 35.13 2.9362 35.3046C3.35577 35.4792 3.80546 35.569 4.25958 35.5689H45.7442C46.6608 35.5682 47.5396 35.2018 48.1874 34.5502C48.8351 33.8986 49.1989 33.0152 49.1987 32.0941C49.198 31.1736 48.8339 30.2911 48.1862 29.6402C47.5385 28.9893 46.6602 28.6234 45.7442 28.6227H4.25958Z" fill="#2A3071"/>
</svg>
