<svg width="40" height="40" viewBox="0 0 40 40" fill="none" xmlns="http://www.w3.org/2000/svg">
<circle cx="20" cy="20" r="20" fill="#4F7ABB"/>
<path fill-rule="evenodd" clip-rule="evenodd" d="M16.9467 20.5C16.9467 18.7583 16.8917 17.305 16.835 16.05H20.5483L20.745 17.9883H20.83C21.3917 17.075 22.77 15.735 25.0767 15.735C27.8917 15.735 30 17.6467 30 21.755V30H25.725V22.2683C25.725 20.4717 25.105 19.245 23.5583 19.245C22.375 19.245 21.675 20.0717 21.365 20.87C21.2517 21.155 21.2233 21.5533 21.2233 21.9533V30H16.9467V20.5ZM10.115 30H14.39V16.05H10.1133V30H10.115ZM14.53 12.1667C14.53 13.365 13.6567 14.3333 12.2217 14.3333C10.8717 14.3367 10 13.3667 10 12.17C10 10.9417 10.9 10 12.2783 10C13.6567 10 14.5 10.9417 14.5283 12.1683L14.53 12.1667Z" fill="white"/>
</svg>
