<svg width="267" height="53" viewBox="0 0 267 53" fill="none" xmlns="http://www.w3.org/2000/svg">
<g clip-path="url(#clip0)">
<path d="M73.9201 39.9158C73.5678 40.2647 73.1097 40.474 72.546 40.474C72.0175 40.474 71.5595 40.2996 71.1719 39.9158C70.8196 39.5668 70.6082 39.1133 70.6082 38.555V13.8519C70.6082 13.2936 70.7843 12.8401 71.1719 12.4911C71.5242 12.1422 71.9823 11.9678 72.546 11.9678H79.9098C81.742 11.9678 83.3627 12.3865 84.8073 13.189C86.2519 13.9915 87.3793 15.108 88.1545 16.5385C88.9648 17.9691 89.3524 19.609 89.3524 21.4233C89.3524 23.2028 88.9648 24.7729 88.1545 26.1686C87.3441 27.5642 86.2519 28.6458 84.8073 29.4135C83.3627 30.1811 81.742 30.5649 79.9098 30.5649H74.4486V38.555C74.4486 39.1133 74.2724 39.532 73.9201 39.9158ZM84.0321 25.4707C85.1244 24.424 85.6529 23.0632 85.6529 21.3884C85.6529 19.6439 85.1244 18.2482 84.0321 17.1317C82.9399 16.0152 81.5658 15.4569 79.9098 15.4569H74.4486V27.0757H79.9098C81.601 27.0757 82.9751 26.5524 84.0321 25.4707Z" fill="#A5A5A5"/>
<path d="M105.912 21.6328C107.463 22.5051 108.661 23.6914 109.541 25.2266C110.422 26.7618 110.845 28.5064 110.845 30.4952C110.845 32.4491 110.422 34.1937 109.541 35.7289C108.696 37.2641 107.498 38.4504 105.948 39.3227C104.397 40.195 102.671 40.6137 100.698 40.6137C98.7246 40.6137 96.963 40.195 95.4127 39.3227C93.8624 38.4504 92.6645 37.2641 91.7836 35.7289C90.938 34.1937 90.48 32.4491 90.48 30.4952C90.48 28.5413 90.9028 26.7618 91.7836 25.2266C92.6292 23.6914 93.8624 22.5051 95.4127 21.6328C96.963 20.7605 98.7246 20.3418 100.698 20.3418C102.636 20.3418 104.397 20.7954 105.912 21.6328ZM97.3153 24.4939C96.3288 25.087 95.5536 25.8895 94.9899 26.9363C94.4261 27.983 94.1443 29.1693 94.1443 30.4952C94.1443 31.8211 94.4261 32.9725 94.9899 34.0192C95.5536 35.066 96.3288 35.8685 97.3153 36.4616C98.3018 37.0548 99.4293 37.3339 100.698 37.3339C101.966 37.3339 103.094 37.0548 104.08 36.4616C105.067 35.8685 105.842 35.066 106.406 34.0192C106.969 32.9725 107.251 31.8211 107.251 30.4952C107.251 29.1693 106.969 28.0179 106.406 26.9363C105.842 25.8895 105.067 25.087 104.08 24.4939C103.094 23.9007 101.966 23.6216 100.698 23.6216C99.4645 23.6216 98.3371 23.9356 97.3153 24.4939Z" fill="#A5A5A5"/>
<path d="M134.275 12.4562C134.628 12.8051 134.804 13.2587 134.804 13.817V30.4602C134.804 32.3443 134.346 34.0889 133.465 35.6241C132.584 37.1593 131.351 38.3805 129.801 39.2877C128.25 40.16 126.559 40.6136 124.656 40.6136C122.754 40.6136 121.027 40.16 119.477 39.2877C117.927 38.4154 116.694 37.1942 115.813 35.6241C114.932 34.0889 114.474 32.3443 114.474 30.4602C114.474 28.576 114.897 26.8315 115.707 25.2963C116.517 23.761 117.645 22.5398 119.09 21.6676C120.534 20.7953 122.12 20.3417 123.917 20.3417C125.326 20.3417 126.665 20.6208 127.898 21.214C129.131 21.8071 130.188 22.6096 131.034 23.6564V13.817C131.034 13.2587 131.21 12.8051 131.562 12.4562C131.915 12.1073 132.373 11.9329 132.901 11.9329C133.465 11.9678 133.923 12.1422 134.275 12.4562ZM128.004 36.4266C128.99 35.8334 129.765 34.9961 130.329 33.9493C130.893 32.9026 131.175 31.7512 131.175 30.4602C131.175 29.1692 130.893 28.0178 130.329 26.971C129.765 25.9243 128.99 25.1218 128.004 24.5286C127.017 23.9355 125.89 23.6215 124.656 23.6215C123.423 23.6215 122.331 23.9355 121.309 24.5286C120.323 25.1218 119.512 25.9243 118.949 26.971C118.385 28.0178 118.068 29.1692 118.068 30.4602C118.068 31.7512 118.35 32.9026 118.949 33.9493C119.512 34.9961 120.323 35.8334 121.309 36.4266C122.296 37.0198 123.423 37.3338 124.656 37.3338C125.89 37.3338 126.982 37.0198 128.004 36.4266Z" fill="#A5A5A5"/>
<path d="M156.684 23.6216C156.93 23.9007 157.036 24.2147 157.036 24.5636C157.036 25.087 156.754 25.5406 156.226 25.9244C155.979 26.0989 155.697 26.1686 155.38 26.1686C154.816 26.1686 154.323 25.9593 153.936 25.5057C153.337 24.8428 152.667 24.3543 151.927 24.0752C151.187 23.7611 150.377 23.6216 149.426 23.6216C147.523 23.6216 146.008 24.2496 144.81 25.5057C143.647 26.7618 143.048 28.4366 143.048 30.4952C143.048 31.821 143.33 32.9725 143.894 34.0192C144.458 35.0659 145.233 35.8684 146.219 36.4616C147.206 37.0548 148.333 37.3339 149.637 37.3339C151.293 37.3339 152.667 36.9152 153.689 36.0429C154.147 35.694 154.605 35.5195 155.063 35.5195C155.415 35.5195 155.732 35.6242 156.014 35.8336C156.472 36.2174 156.719 36.6709 156.719 37.1594C156.719 37.5083 156.578 37.8573 156.261 38.1364C154.499 39.7763 152.28 40.5788 149.637 40.5788C147.699 40.5788 145.938 40.1252 144.387 39.2529C142.837 38.3806 141.639 37.1594 140.758 35.6242C139.877 34.089 139.455 32.3444 139.455 30.4603C139.455 28.5064 139.877 26.7618 140.723 25.2266C141.569 23.6914 142.766 22.4702 144.282 21.5979C145.797 20.7256 147.523 20.3069 149.426 20.3069C152.35 20.3418 154.781 21.4583 156.684 23.6216Z" fill="#A5A5A5"/>
<path d="M176.027 21.6676C177.577 22.5399 178.775 23.7611 179.691 25.3312C180.572 26.8665 181.03 28.611 181.03 30.4952V38.6249C181.03 39.1482 180.854 39.6018 180.502 39.9507C180.149 40.2997 179.691 40.4741 179.163 40.4741C178.634 40.4741 178.176 40.2997 177.824 39.9507C177.472 39.6018 177.295 39.1482 177.295 38.6249V37.2641C176.45 38.3108 175.393 39.1133 174.16 39.7065C172.926 40.2997 171.588 40.5788 170.178 40.5788C168.417 40.5788 166.796 40.1252 165.351 39.2529C163.907 38.3806 162.779 37.1594 161.969 35.6242C161.158 34.089 160.736 32.3444 160.736 30.4603C160.736 28.5761 161.194 26.8316 162.074 25.2964C162.955 23.7611 164.188 22.5399 165.739 21.6328C167.289 20.7605 169.015 20.3069 170.918 20.3069C172.75 20.3418 174.477 20.7954 176.027 21.6676ZM174.195 36.4267C175.181 35.8336 175.956 35.0311 176.52 33.9843C177.084 32.9376 177.366 31.7862 177.366 30.4952C177.366 29.2042 177.084 28.0528 176.52 27.006C175.956 25.9593 175.181 25.1219 174.195 24.5287C173.208 23.9356 172.081 23.6216 170.848 23.6216C169.614 23.6216 168.522 23.9356 167.5 24.5287C166.514 25.1219 165.704 25.9593 165.14 27.006C164.576 28.0528 164.259 29.2042 164.259 30.4952C164.259 31.7862 164.541 32.9376 165.14 33.9843C165.704 35.0311 166.514 35.8336 167.5 36.4267C168.487 37.0199 169.614 37.3339 170.848 37.3339C172.116 37.3339 173.208 37.0199 174.195 36.4267Z" fill="#A5A5A5"/>
<path d="M197.061 21.1094C198.33 21.6327 199.316 22.3306 200.056 23.2377C200.373 23.6215 200.55 24.0054 200.55 24.3892C200.55 24.8079 200.338 25.1917 199.915 25.5057C199.633 25.715 199.316 25.7848 198.894 25.7848C198.259 25.7848 197.66 25.5406 197.167 25.087C196.568 24.5287 195.899 24.1449 195.229 23.9007C194.525 23.6564 193.714 23.5518 192.728 23.5518C191.6 23.5518 190.684 23.7262 189.944 24.11C189.204 24.4938 188.852 25.0172 188.852 25.6801C188.852 26.1686 188.958 26.5873 189.204 26.9013C189.451 27.2154 189.909 27.5294 190.614 27.8085C191.318 28.0876 192.305 28.3668 193.608 28.6459C196.286 29.1693 198.189 29.9369 199.316 30.879C200.444 31.821 201.008 33.0422 201.008 34.5774C201.008 35.694 200.69 36.7058 200.091 37.613C199.493 38.5202 198.576 39.2529 197.378 39.7763C196.181 40.2996 194.771 40.5439 193.08 40.5439C191.424 40.5439 189.838 40.2996 188.359 39.7763C186.879 39.2529 185.716 38.5899 184.906 37.7526C184.589 37.4385 184.413 37.0547 184.413 36.636C184.413 36.0429 184.659 35.5893 185.152 35.2055C185.61 34.8566 186.033 34.6821 186.456 34.6821C186.949 34.6821 187.407 34.8915 187.865 35.3451C188.323 35.8684 189.028 36.2871 189.979 36.6709C190.896 37.0547 191.917 37.2292 192.974 37.2292C194.384 37.2292 195.476 36.9849 196.251 36.5314C197.026 36.0778 197.414 35.4497 197.414 34.6821C197.414 33.9145 197.026 33.2865 196.286 32.798C195.511 32.3095 194.243 31.8908 192.411 31.5419C187.689 30.6347 185.329 28.7157 185.329 25.7848C185.329 24.5985 185.681 23.5867 186.386 22.7493C187.09 21.9119 188.042 21.2838 189.204 20.9C190.367 20.4813 191.6 20.272 192.904 20.272C194.348 20.3418 195.793 20.6209 197.061 21.1094Z" fill="#A5A5A5"/>
<path d="M214.502 37.3339C214.819 37.6828 214.96 38.1015 214.96 38.6597C214.96 39.1831 214.749 39.6367 214.361 39.9856C213.938 40.3345 213.445 40.509 212.811 40.509H212.106C210.908 40.509 209.816 40.195 208.794 39.5669C207.808 38.9389 207.033 38.1015 206.469 37.0198C205.905 35.9382 205.623 34.7519 205.623 33.3911V24.3543H203.932C203.404 24.3543 203.016 24.2147 202.664 23.9007C202.347 23.6216 202.17 23.2378 202.17 22.8191C202.17 22.3306 202.311 21.9468 202.664 21.6676C202.981 21.3885 203.404 21.2141 203.932 21.2141H205.623V15.9803C205.623 15.457 205.799 15.0034 206.152 14.6545C206.504 14.3056 206.927 14.1311 207.491 14.1311C208.019 14.1311 208.477 14.3056 208.83 14.6545C209.182 15.0034 209.358 15.4221 209.358 15.9803V21.2489H212.494C213.022 21.2489 213.445 21.3885 213.762 21.7025C214.079 21.9817 214.255 22.4004 214.255 22.8539C214.255 23.3075 214.079 23.6564 213.762 23.9356C213.445 24.2147 213.022 24.3892 212.494 24.3892H209.358V33.3911C209.358 34.3681 209.64 35.1706 210.168 35.8335C210.697 36.4965 211.366 36.8105 212.177 36.8105H213.445C213.797 36.8105 214.185 36.985 214.502 37.3339Z" fill="#A5A5A5"/>
<path d="M221.514 36.7056C222.007 37.1941 222.253 37.8221 222.253 38.52C222.253 39.2178 222.007 39.7761 221.514 40.2994C221.02 40.7879 220.421 41.0322 219.717 41.0322C219.012 41.0322 218.448 40.7879 217.92 40.2994C217.426 39.811 217.18 39.2178 217.18 38.52C217.18 37.8221 217.426 37.229 217.92 36.7056C218.413 36.2171 219.012 35.9729 219.717 35.9729C220.386 35.9729 220.985 36.2171 221.514 36.7056Z" fill="#A5A5A5"/>
<path d="M242.654 23.6216C242.9 23.9007 243.006 24.2147 243.006 24.5636C243.006 25.087 242.724 25.5406 242.196 25.9244C241.949 26.0989 241.667 26.1686 241.35 26.1686C240.786 26.1686 240.293 25.9593 239.906 25.5057C239.307 24.8428 238.637 24.3543 237.897 24.0752C237.157 23.7611 236.347 23.6216 235.396 23.6216C233.493 23.6216 231.978 24.2496 230.78 25.5057C229.617 26.7618 229.018 28.4366 229.018 30.4952C229.018 31.821 229.3 32.9725 229.864 34.0192C230.428 35.0659 231.203 35.8684 232.189 36.4616C233.176 37.0548 234.303 37.3339 235.607 37.3339C237.263 37.3339 238.637 36.9152 239.659 36.0429C240.117 35.694 240.575 35.5195 241.033 35.5195C241.385 35.5195 241.702 35.6242 241.984 35.8336C242.442 36.2174 242.689 36.6709 242.689 37.1594C242.689 37.5083 242.548 37.8573 242.231 38.1364C240.469 39.7763 238.25 40.5788 235.607 40.5788C233.669 40.5788 231.907 40.1252 230.357 39.2529C228.807 38.3806 227.609 37.1594 226.728 35.6242C225.847 34.089 225.424 32.3444 225.424 30.4603C225.424 28.5064 225.847 26.7618 226.693 25.2266C227.539 23.6914 228.736 22.4702 230.252 21.5979C231.767 20.7256 233.493 20.3069 235.396 20.3069C238.355 20.3418 240.751 21.4583 242.654 23.6216Z" fill="#A5A5A5"/>
<path d="M262.067 21.6328C263.618 22.5051 264.816 23.6914 265.696 25.2266C266.577 26.7618 267 28.5064 267 30.4952C267 32.4491 266.577 34.1937 265.696 35.7289C264.851 37.2641 263.653 38.4504 262.103 39.3227C260.552 40.195 258.826 40.6137 256.853 40.6137C254.88 40.6137 253.118 40.195 251.568 39.3227C250.018 38.4504 248.82 37.2641 247.939 35.7289C247.093 34.1937 246.635 32.4491 246.635 30.4952C246.635 28.5413 247.058 26.7618 247.939 25.2266C248.784 23.6914 250.018 22.5051 251.568 21.6328C253.118 20.7605 254.88 20.3418 256.853 20.3418C258.791 20.3418 260.552 20.7954 262.067 21.6328ZM253.47 24.4939C252.484 25.087 251.709 25.8895 251.145 26.9363C250.581 27.983 250.299 29.1693 250.299 30.4952C250.299 31.8211 250.581 32.9725 251.145 34.0192C251.709 35.066 252.484 35.8685 253.47 36.4616C254.457 37.0548 255.584 37.3339 256.853 37.3339C258.121 37.3339 259.249 37.0548 260.235 36.4616C261.222 35.8685 261.997 35.066 262.561 34.0192C263.124 32.9725 263.371 31.8211 263.371 30.4952C263.371 29.1693 263.089 28.0179 262.561 26.9363C261.997 25.8895 261.222 25.087 260.235 24.4939C259.249 23.9007 258.121 23.6216 256.853 23.6216C255.62 23.6216 254.492 23.9356 253.47 24.4939Z" fill="#A5A5A5"/>
<path d="M26.7775 0C11.9794 0 0 11.8631 0 26.4826C0 41.102 11.9794 52.9651 26.7775 52.9651C41.5404 52.9651 53.5198 41.102 53.5198 26.4826C53.5198 11.8631 41.5404 0 26.7775 0ZM26.7775 47.5569C15.0447 47.5569 5.49644 38.1363 5.49644 26.4826C5.49644 14.8637 15.0095 5.40816 26.7775 5.40816C38.5103 5.40816 48.0586 14.8288 48.0586 26.4826C48.0234 38.1363 38.5103 47.5569 26.7775 47.5569Z" fill="#A5A5A5"/>
<path d="M27.447 14.0613C21.2106 14.0613 16.1722 19.0507 16.1722 25.2265C16.1722 25.3312 16.1722 25.401 16.1722 25.5056V37.8921C16.1722 37.927 16.1722 37.9968 16.1722 38.0316C16.1722 39.532 17.4054 40.7183 18.8852 40.7183C20.4003 40.7183 21.5982 39.4971 21.5982 38.0316V34.7519C23.2894 35.7637 25.2977 36.3569 27.4117 36.3569C33.6481 36.3569 38.6865 31.3674 38.6865 25.1916C38.6865 19.0507 33.6481 14.0613 27.447 14.0613ZM27.447 30.9836C24.3112 30.9836 21.7391 28.5063 21.6334 25.4359V25.2265C21.6334 22.0514 24.2407 19.4694 27.447 19.4694C30.6532 19.4694 33.2605 22.0514 33.2605 25.2265C33.2605 28.4016 30.6532 30.9836 27.447 30.9836Z" fill="#A5A5A5"/>
</g>
<defs>
<clipPath id="clip0">
<rect width="267" height="53" fill="white"/>
</clipPath>
</defs>
</svg>
