<svg width="86" height="86" viewBox="0 0 86 86" fill="none" xmlns="http://www.w3.org/2000/svg">
<path d="M26.8885 18.8874C31.6575 15.7008 37.2643 14 43 14C50.6913 14 58.0675 17.0553 63.5061 22.4939C68.9446 27.9325 72 35.3087 72 43C72 48.7356 70.2992 54.3425 67.1126 59.1115C63.9261 63.8805 59.3969 67.5975 54.0978 69.7925C48.7988 71.9874 42.9678 72.5617 37.3424 71.4428C31.7169 70.3238 26.5496 67.5618 22.4939 63.5061C18.4382 59.4504 15.6762 54.2831 14.5572 48.6576C13.4383 43.0322 14.0126 37.2012 16.2075 31.9022C18.4024 26.6031 22.1194 22.0739 26.8885 18.8874Z" stroke="white" stroke-width="2" stroke-linecap="round" stroke-linejoin="round"/>
<path d="M56 41.2679C57.3333 42.0378 57.3333 43.9622 56 44.7321L38 55.1244C36.6667 55.8942 35 54.9319 35 53.3923L35 32.6077C35 31.0681 36.6667 30.1058 38 30.8756L56 41.2679Z" fill="white"/>
</svg>
