<svg width="175" height="53" viewBox="0 0 175 53" fill="none" xmlns="http://www.w3.org/2000/svg">
<g clip-path="url(#clip0)">
<path d="M26.2957 0.0866699C11.817 0.0866699 0.0791931 11.8242 0.0791931 26.3029C0.0791931 40.7821 11.817 52.5187 26.2957 52.5187C40.7759 52.5187 52.5125 40.7821 52.5125 26.3029C52.5125 11.8251 40.7759 0.0879222 26.2954 0.0879222L26.2957 0.0866699ZM38.3184 37.8979C37.8488 38.6681 36.8408 38.9122 36.0707 38.4395C29.9153 34.6797 22.1664 33.8282 13.0408 35.9131C12.1614 36.1135 11.2848 35.5625 11.0845 34.6828C10.8832 33.8031 11.432 32.9266 12.3135 32.7262C22.3001 30.4446 30.8664 31.427 37.7768 35.6502C38.547 36.1229 38.7911 37.1278 38.3184 37.8979ZM41.5273 30.7596C40.9356 31.7213 39.6771 32.0249 38.716 31.4333C31.669 27.1018 20.927 25.8474 12.5919 28.3775C11.5109 28.704 10.3691 28.0948 10.041 27.0157C9.71546 25.9347 10.325 24.7952 11.4041 24.4665C20.9252 21.5775 32.7616 22.9769 40.8542 27.9499C41.8153 28.5415 42.1189 29.8 41.5273 30.7599V30.7596ZM41.8028 23.3263C33.3533 18.3076 19.4128 17.8462 11.3456 20.2946C10.0501 20.6875 8.68018 19.9562 8.2876 18.6608C7.89503 17.3647 8.62571 15.9957 9.92208 15.6019C19.1827 12.7906 34.5774 13.3338 44.3054 19.1088C45.4731 19.8003 45.855 21.3052 45.1631 22.4688C44.4744 23.634 42.9655 24.0182 41.804 23.3263H41.8028ZM71.4056 24.288C66.8788 23.2086 66.0742 22.451 66.0742 20.8591C66.0742 19.3551 67.4893 18.343 69.5961 18.343C71.6373 18.343 73.6597 19.1116 75.7822 20.6938C75.8448 20.7417 75.9262 20.7608 76.0045 20.7483C76.0859 20.7364 76.1547 20.6928 76.2017 20.6274L78.4119 17.5118C78.5027 17.3835 78.4776 17.2066 78.3555 17.1086C75.8292 15.0822 72.9866 14.097 69.6619 14.097C64.775 14.097 61.3596 17.0301 61.3596 21.2266C61.3596 25.7268 64.3055 27.3203 69.3958 28.5503C73.7254 29.548 74.458 30.3839 74.458 31.8778C74.458 33.5339 72.9803 34.5639 70.6011 34.5639C67.9588 34.5639 65.8019 33.6716 63.3913 31.5867C63.3318 31.5334 63.2504 31.5115 63.1753 31.5147C63.0939 31.5209 63.0219 31.5585 62.9718 31.618L60.4924 34.567C60.3891 34.6922 60.4016 34.8738 60.5206 34.9802C63.3256 37.4847 66.7755 38.8058 70.5009 38.8058C75.7665 38.8058 79.1695 35.9288 79.1695 31.474C79.1789 27.7151 76.928 25.6332 71.415 24.2921L71.4056 24.288ZM91.0845 19.8238C88.8023 19.8238 86.9302 20.7229 85.3837 22.5652V20.4915C85.3837 20.3278 85.2522 20.1945 85.0894 20.1945H81.0353C80.8725 20.1945 80.7411 20.3278 80.7411 20.4915V43.533C80.7411 43.6958 80.8725 43.8304 81.0353 43.8304H85.0894C85.2522 43.8304 85.3837 43.6958 85.3837 43.533V36.2606C86.9302 37.9919 88.8023 38.8402 91.0845 38.8402C95.3265 38.8402 99.6217 35.575 99.6217 29.333C99.6279 23.0896 95.3327 19.8235 91.0877 19.8235L91.0845 19.8238ZM94.907 29.333C94.907 32.5102 92.9504 34.7298 90.1454 34.7298C87.3748 34.7298 85.2835 32.41 85.2835 29.333C85.2835 26.2556 87.3748 23.9364 90.1454 23.9364C92.9034 23.9361 94.907 26.2052 94.907 29.3326V29.333ZM110.626 19.8238C105.163 19.8238 100.883 24.03 100.883 29.4009C100.883 34.7141 105.135 38.8747 110.56 38.8747C116.042 38.8747 120.334 34.6828 120.334 29.333C120.334 24.0012 116.07 19.8244 110.626 19.8244V19.8238ZM110.626 34.7611C107.72 34.7611 105.529 32.4257 105.529 29.3314C105.529 26.223 107.645 23.9674 110.56 23.9674C113.484 23.9674 115.688 26.3019 115.688 29.3993C115.688 32.5071 113.559 34.7611 110.626 34.7611ZM131.998 20.1945H127.537V15.6344C127.537 15.471 127.406 15.3377 127.243 15.3377H123.189C123.026 15.3377 122.891 15.471 122.891 15.6344V20.1945H120.944C120.781 20.1945 120.65 20.3278 120.65 20.4915V23.975C120.65 24.1384 120.781 24.272 120.944 24.272H122.891V33.2866C122.891 36.9275 124.704 38.7745 128.282 38.7745C129.735 38.7745 130.94 38.474 132.076 37.8291C132.17 37.779 132.227 37.6788 132.227 37.5724V34.2539C132.227 34.1538 132.174 34.0567 132.086 34.0035C131.998 33.9471 131.889 33.944 131.798 33.991C131.018 34.3823 130.264 34.5639 129.419 34.5639C128.119 34.5639 127.537 33.9722 127.537 32.6511V24.2736H131.998C132.161 24.2736 132.292 24.1402 132.292 23.9765V20.4934C132.299 20.3297 132.167 20.1963 132.001 20.1963L131.998 20.1945ZM147.538 20.2123V19.6522C147.538 18.0046 148.171 17.2699 149.586 17.2699C150.431 17.2699 151.11 17.4377 151.871 17.6912C151.965 17.7207 152.062 17.7059 152.137 17.6499C152.216 17.5939 152.259 17.504 152.259 17.4089V13.9934C152.259 13.8628 152.178 13.7473 152.05 13.7088C151.248 13.4699 150.221 13.2248 148.681 13.2248C144.94 13.2248 142.958 15.333 142.958 19.3191V20.1769H141.011C140.848 20.1769 140.714 20.3103 140.714 20.4737V23.975C140.714 24.1384 140.848 24.272 141.011 24.272H142.958V38.1734C142.958 38.3393 143.093 38.4708 143.256 38.4708H147.307C147.473 38.4708 147.604 38.3393 147.604 38.1734V24.273H151.389L157.187 38.1734C156.53 39.6323 155.881 39.9234 154.999 39.9234C154.285 39.9234 153.53 39.7105 152.763 39.2879C152.691 39.2504 152.604 39.2441 152.529 39.266C152.45 39.2942 152.385 39.3505 152.353 39.4257L150.979 42.4404C150.913 42.5844 150.97 42.7504 151.107 42.8255C152.541 43.6019 153.834 43.9337 155.434 43.9337C158.427 43.9337 160.083 42.5375 161.538 38.787L168.57 20.618C168.607 20.5266 168.595 20.4233 168.538 20.3422C168.485 20.2618 168.394 20.2132 168.297 20.2132H164.077C163.949 20.2132 163.836 20.2937 163.796 20.4123L159.472 32.7575L154.739 20.4042C154.695 20.2893 154.585 20.2132 154.463 20.2132H147.538V20.2123ZM138.529 20.1945H134.475C134.312 20.1945 134.177 20.3278 134.177 20.4915V38.1734C134.177 38.3393 134.312 38.4708 134.475 38.4708H138.529C138.691 38.4708 138.826 38.3393 138.826 38.1734V20.4928C138.826 20.3291 138.695 20.1957 138.529 20.1957V20.1945ZM136.525 12.1429C134.919 12.1429 133.617 13.4427 133.617 15.0484C133.617 16.655 134.919 17.9564 136.525 17.9564C138.131 17.9564 139.43 16.655 139.43 15.0484C139.43 13.443 138.128 12.1429 136.525 12.1429ZM172.032 25.8799C170.429 25.8799 169.18 24.5917 169.18 23.0273C169.18 21.463 170.445 20.16 172.048 20.16C173.651 20.16 174.9 21.4479 174.9 23.011C174.9 24.5754 173.635 25.8799 172.032 25.8799ZM172.048 20.4436C170.586 20.4436 169.481 21.6051 169.481 23.0273C169.481 24.4489 170.58 25.5947 172.032 25.5947C173.494 25.5947 174.599 24.4342 174.599 23.011C174.599 21.5894 173.5 20.4436 172.048 20.4436ZM172.68 23.3044L173.488 24.4339H172.805L172.079 23.3977H171.456V24.4339H170.886V21.4398H172.22C172.918 21.4398 173.375 21.7957 173.375 22.3949C173.378 22.8858 173.093 23.1857 172.683 23.3044H172.68ZM172.198 21.9535H171.456V22.9005H172.198C172.568 22.9005 172.79 22.7193 172.79 22.4266C172.79 22.1185 172.568 21.9535 172.198 21.9535Z" fill="#A5A5A5"/>
</g>
<defs>
<clipPath id="clip0">
<rect width="175" height="52.5939" fill="white"/>
</clipPath>
</defs>
</svg>
