<svg width="40" height="40" viewBox="0 0 40 40" fill="none" xmlns="http://www.w3.org/2000/svg">
<circle cx="20" cy="20" r="20" fill="#50DFFF"/>
<path fill-rule="evenodd" clip-rule="evenodd" d="M27.667 14.141C28.501 13.646 29.167 12.821 29.501 11.831C28.667 12.325 27.834 12.656 26.917 12.821C26.084 11.995 25.001 11.5 23.834 11.5C21.584 11.5 19.75 13.398 19.75 15.625C19.75 15.955 19.75 16.285 19.834 16.615C16.417 16.452 13.417 14.8 11.417 12.244C11.001 12.904 10.834 13.564 10.834 14.389C10.834 15.874 11.584 17.112 12.667 17.854C12.001 17.854 11.334 17.607 10.834 17.359V17.442C10.834 19.422 12.25 21.155 14.084 21.568C13.75 21.65 13.417 21.732 13 21.732C12.75 21.732 12.5 21.732 12.25 21.65C12.75 23.3 14.25 24.537 16.084 24.537C14.6522 25.7152 12.8542 26.3571 11 26.352C10.666 26.352 10.334 26.352 10 26.269C11.834 27.424 14 28.167 16.25 28.167C23.834 28.167 27.916 21.813 27.916 16.285V15.707C28.7148 15.0691 29.4168 14.3186 30 13.479C29.25 13.811 28.5 14.059 27.667 14.141Z" fill="white"/>
</svg>
